<svg width="24" height="24" viewBox="0 0 24 24" fill="none" xmlns="http://www.w3.org/2000/svg">
<path d="M23.2498 11.25H13.7498C13.3358 11.25 12.9998 10.914 12.9998 10.5C12.9998 10.086 13.3358 9.75 13.7498 9.75H23.2498C23.6638 9.75 23.9998 10.086 23.9998 10.5C23.9998 10.914 23.6638 11.25 23.2498 11.25Z" fill="#F51313"/>
<path d="M19.4996 14.9998C19.3075 14.9998 19.1156 14.9268 18.9695 14.7799C18.6765 14.4868 18.6765 14.0118 18.9695 13.7188L22.1896 10.4989L18.9695 7.27882C18.6765 6.98586 18.6765 6.51088 18.9695 6.21791C19.2626 5.92476 19.7376 5.92476 20.0306 6.21791L23.7806 9.96791C24.0735 10.2609 24.0735 10.7359 23.7806 11.0288L20.0306 14.7788C19.8835 14.9268 19.6917 14.9998 19.4996 14.9998V14.9998Z" fill="#F51313"/>
<path d="M8.00006 24C7.78601 24 7.58295 23.97 7.38007 23.907L1.36194 21.902C0.543091 21.616 0 20.853 0 20.0001V2.00006C0 0.897034 0.897034 0 2.00006 0C2.21393 0 2.41699 0.0300293 2.62006 0.0930176L8.638 2.09802C9.45703 2.38403 9.99994 3.14703 9.99994 3.99994V21.9999C9.99994 23.103 9.10309 24 8.00006 24ZM2.00006 1.5C1.72504 1.5 1.5 1.72504 1.5 2.00006V20.0001C1.5 20.213 1.64301 20.4109 1.84698 20.482L7.83691 22.478C7.87994 22.4919 7.93597 22.5 8.00006 22.5C8.27509 22.5 8.49994 22.275 8.49994 21.9999V3.99994C8.49994 3.78699 8.35693 3.58905 8.15295 3.51801L2.16302 1.52197C2.12 1.50806 2.06396 1.5 2.00006 1.5V1.5Z" fill="#F51313"/>
<path d="M15.2496 8.00006C14.8356 8.00006 14.4996 7.66406 14.4996 7.25006V2.75006C14.4996 2.06104 13.9388 1.5 13.2498 1.5H1.99976C1.58575 1.5 1.24976 1.164 1.24976 0.75C1.24976 0.335999 1.58575 0 1.99976 0H13.2498C14.7668 0 15.9996 1.23303 15.9996 2.75006V7.25006C15.9996 7.66406 15.6636 8.00006 15.2496 8.00006Z" fill="#F51313"/>
<path d="M13.2496 21.0001H9.24951C8.83551 21.0001 8.49951 20.6641 8.49951 20.2501C8.49951 19.8361 8.83551 19.5001 9.24951 19.5001H13.2496C13.9387 19.5001 14.4995 18.939 14.4995 18.25V13.75C14.4995 13.336 14.8355 13 15.2495 13C15.6635 13 15.9995 13.336 15.9995 13.75V18.25C15.9995 19.767 14.7667 21.0001 13.2496 21.0001V21.0001Z" fill="#F51313"/>
</svg>
